<svg width="431" height="348" viewBox="0 0 431 348" fill="none" xmlns="http://www.w3.org/2000/svg">
<path d="M404.062 143.294H26.9375C12.0604 143.294 0 157.042 0 174C0 190.958 12.0604 204.706 26.9375 204.706H404.062C418.94 204.706 431 190.958 431 174C431 157.042 418.94 143.294 404.062 143.294Z" fill="#3876BF"/>
<path d="M26.9375 61.4119H404.062C418.94 61.4119 431 47.6643 431 30.7059C431 13.7476 418.94 0 404.062 0H26.9375C12.0604 0 0 13.7476 0 30.7059C0 47.6643 12.0604 61.4119 26.9375 61.4119Z" fill="#3876BF"/>
<path d="M404.062 286.588H26.9375C12.0604 286.588 0 300.336 0 317.294C0 334.252 12.0604 348 26.9375 348H404.062C418.94 348 431 334.252 431 317.294C431 300.336 418.94 286.588 404.062 286.588Z" fill="#3876BF"/>
</svg>
