<svg width="183" height="53" viewBox="0 0 183 53" fill="none" xmlns="http://www.w3.org/2000/svg">
<path d="M8.07 33.43C8.73 33.43 9.27 33.38 9.69 33.28C10.13 33.16 10.48 33.01 10.74 32.83C11 32.63 11.18 32.4 11.28 32.14C11.38 31.88 11.43 31.59 11.43 31.27C11.43 30.59 11.11 30.03 10.47 29.59C9.83 29.13 8.73 28.64 7.17 28.12C6.49 27.88 5.81 27.61 5.13 27.31C4.45 26.99 3.84 26.6 3.3 26.14C2.76 25.66 2.32 25.09 1.98 24.43C1.64 23.75 1.47 22.93 1.47 21.97C1.47 21.01 1.65 20.15 2.01 19.39C2.37 18.61 2.88 17.95 3.54 17.41C4.2 16.87 5 16.46 5.94 16.18C6.88 15.88 7.94 15.73 9.12 15.73C10.52 15.73 11.73 15.88 12.75 16.18C13.77 16.48 14.61 16.81 15.27 17.17L13.92 20.86C13.34 20.56 12.69 20.3 11.97 20.08C11.27 19.84 10.42 19.72 9.42 19.72C8.3 19.72 7.49 19.88 6.99 20.2C6.51 20.5 6.27 20.97 6.27 21.61C6.27 21.99 6.36 22.31 6.54 22.57C6.72 22.83 6.97 23.07 7.29 23.29C7.63 23.49 8.01 23.68 8.43 23.86C8.87 24.02 9.35 24.19 9.87 24.37C10.95 24.77 11.89 25.17 12.69 25.57C13.49 25.95 14.15 26.4 14.67 26.92C15.21 27.44 15.61 28.05 15.87 28.75C16.13 29.45 16.26 30.3 16.26 31.3C16.26 33.24 15.58 34.75 14.22 35.83C12.86 36.89 10.81 37.42 8.07 37.42C7.15 37.42 6.32 37.36 5.58 37.24C4.84 37.14 4.18 37.01 3.6 36.85C3.04 36.69 2.55 36.52 2.13 36.34C1.73 36.16 1.39 35.99 1.11 35.83L2.43 32.11C3.05 32.45 3.81 32.76 4.71 33.04C5.63 33.3 6.75 33.43 8.07 33.43ZM25.9425 33.88C26.3825 33.88 26.8025 33.87 27.2025 33.85C27.6025 33.83 27.9225 33.8 28.1625 33.76V30.37C27.9825 30.33 27.7125 30.29 27.3525 30.25C26.9925 30.21 26.6625 30.19 26.3625 30.19C25.9425 30.19 25.5425 30.22 25.1625 30.28C24.8025 30.32 24.4825 30.41 24.2025 30.55C23.9225 30.69 23.7025 30.88 23.5425 31.12C23.3825 31.36 23.3025 31.66 23.3025 32.02C23.3025 32.72 23.5325 33.21 23.9925 33.49C24.4725 33.75 25.1225 33.88 25.9425 33.88ZM25.5825 20.8C26.9025 20.8 28.0025 20.95 28.8825 21.25C29.7625 21.55 30.4625 21.98 30.9825 22.54C31.5225 23.1 31.9025 23.78 32.1225 24.58C32.3425 25.38 32.4525 26.27 32.4525 27.25V36.55C31.8125 36.69 30.9225 36.85 29.7825 37.03C28.6425 37.23 27.2625 37.33 25.6425 37.33C24.6225 37.33 23.6925 37.24 22.8525 37.06C22.0325 36.88 21.3225 36.59 20.7225 36.19C20.1225 35.77 19.6625 35.23 19.3425 34.57C19.0225 33.91 18.8625 33.1 18.8625 32.14C18.8625 31.22 19.0425 30.44 19.4025 29.8C19.7825 29.16 20.2825 28.65 20.9025 28.27C21.5225 27.89 22.2325 27.62 23.0325 27.46C23.8325 27.28 24.6625 27.19 25.5225 27.19C26.1025 27.19 26.6125 27.22 27.0525 27.28C27.5125 27.32 27.8825 27.38 28.1625 27.46V27.04C28.1625 26.28 27.9325 25.67 27.4725 25.21C27.0125 24.75 26.2125 24.52 25.0725 24.52C24.3125 24.52 23.5625 24.58 22.8225 24.7C22.0825 24.8 21.4425 24.95 20.9025 25.15L20.3325 21.55C20.5925 21.47 20.9125 21.39 21.2925 21.31C21.6925 21.21 22.1225 21.13 22.5825 21.07C23.0425 20.99 23.5225 20.93 24.0225 20.89C24.5425 20.83 25.0625 20.8 25.5825 20.8ZM40.4037 37C39.3837 35 38.3437 32.66 37.2837 29.98C36.2437 27.3 35.2537 24.38 34.3137 21.22H39.0537C39.2537 22 39.4837 22.85 39.7437 23.77C40.0237 24.67 40.3037 25.59 40.5837 26.53C40.8837 27.45 41.1737 28.35 41.4537 29.23C41.7537 30.11 42.0437 30.91 42.3237 31.63C42.5837 30.91 42.8637 30.11 43.1637 29.23C43.4637 28.35 43.7537 27.45 44.0337 26.53C44.3337 25.59 44.6137 24.67 44.8737 23.77C45.1537 22.85 45.3937 22 45.5937 21.22H50.2137C49.2737 24.38 48.2737 27.3 47.2137 29.98C46.1737 32.66 45.1437 35 44.1237 37H40.4037ZM51.4477 29.23C51.4477 27.83 51.6577 26.61 52.0777 25.57C52.5177 24.51 53.0877 23.63 53.7877 22.93C54.4877 22.23 55.2877 21.7 56.1877 21.34C57.1077 20.98 58.0477 20.8 59.0077 20.8C61.2477 20.8 63.0177 21.49 64.3177 22.87C65.6177 24.23 66.2677 26.24 66.2677 28.9C66.2677 29.16 66.2577 29.45 66.2377 29.77C66.2177 30.07 66.1977 30.34 66.1777 30.58H56.0377C56.1377 31.5 56.5677 32.23 57.3277 32.77C58.0877 33.31 59.1077 33.58 60.3877 33.58C61.2077 33.58 62.0077 33.51 62.7877 33.37C63.5877 33.21 64.2377 33.02 64.7377 32.8L65.3377 36.43C65.0977 36.55 64.7777 36.67 64.3777 36.79C63.9777 36.91 63.5277 37.01 63.0277 37.09C62.5477 37.19 62.0277 37.27 61.4677 37.33C60.9077 37.39 60.3477 37.42 59.7877 37.42C58.3677 37.42 57.1277 37.21 56.0677 36.79C55.0277 36.37 54.1577 35.8 53.4577 35.08C52.7777 34.34 52.2677 33.47 51.9277 32.47C51.6077 31.47 51.4477 30.39 51.4477 29.23ZM61.9477 27.52C61.9277 27.14 61.8577 26.77 61.7377 26.41C61.6377 26.05 61.4677 25.73 61.2277 25.45C61.0077 25.17 60.7177 24.94 60.3577 24.76C60.0177 24.58 59.5877 24.49 59.0677 24.49C58.5677 24.49 58.1377 24.58 57.7777 24.76C57.4177 24.92 57.1177 25.14 56.8777 25.42C56.6377 25.7 56.4477 26.03 56.3077 26.41C56.1877 26.77 56.0977 27.14 56.0377 27.52H61.9477ZM74.1872 37H69.7172V21.22H74.1872V37ZM74.6072 16.66C74.6072 17.48 74.3372 18.13 73.7972 18.61C73.2772 19.07 72.6572 19.3 71.9372 19.3C71.2172 19.3 70.5872 19.07 70.0472 18.61C69.5272 18.13 69.2672 17.48 69.2672 16.66C69.2672 15.84 69.5272 15.2 70.0472 14.74C70.5872 14.26 71.2172 14.02 71.9372 14.02C72.6572 14.02 73.2772 14.26 73.7972 14.74C74.3372 15.2 74.6072 15.84 74.6072 16.66ZM78.3891 21.76C79.1491 21.54 80.1291 21.34 81.3291 21.16C82.5291 20.96 83.7891 20.86 85.1091 20.86C86.4491 20.86 87.5591 21.04 88.4391 21.4C89.3391 21.74 90.0491 22.23 90.5691 22.87C91.0891 23.51 91.4591 24.27 91.6791 25.15C91.8991 26.03 92.0091 27.01 92.0091 28.09V37H87.5391V28.63C87.5391 27.19 87.3491 26.17 86.9691 25.57C86.5891 24.97 85.8791 24.67 84.8391 24.67C84.5191 24.67 84.1791 24.69 83.8191 24.73C83.4591 24.75 83.1391 24.78 82.8591 24.82V37H78.3891V21.76ZM100.435 34.63C100.435 35.53 100.145 36.22 99.5651 36.7C99.0051 37.16 98.3651 37.39 97.6451 37.39C96.9251 37.39 96.2751 37.16 95.6951 36.7C95.1351 36.22 94.8551 35.53 94.8551 34.63C94.8551 33.73 95.1351 33.05 95.6951 32.59C96.2751 32.11 96.9251 31.87 97.6451 31.87C98.3651 31.87 99.0051 32.11 99.5651 32.59C100.145 33.05 100.435 33.73 100.435 34.63ZM107.908 37H103.438V21.22H107.908V37ZM108.328 16.66C108.328 17.48 108.058 18.13 107.518 18.61C106.998 19.07 106.378 19.3 105.658 19.3C104.938 19.3 104.308 19.07 103.768 18.61C103.248 18.13 102.988 17.48 102.988 16.66C102.988 15.84 103.248 15.2 103.768 14.74C104.308 14.26 104.938 14.02 105.658 14.02C106.378 14.02 106.998 14.26 107.518 14.74C108.058 15.2 108.328 15.84 108.328 16.66ZM126.87 29.08C126.87 30.32 126.69 31.46 126.33 32.5C125.97 33.52 125.45 34.4 124.77 35.14C124.09 35.86 123.27 36.42 122.31 36.82C121.37 37.22 120.31 37.42 119.13 37.42C117.97 37.42 116.91 37.22 115.95 36.82C115.01 36.42 114.2 35.86 113.52 35.14C112.84 34.4 112.31 33.52 111.93 32.5C111.55 31.46 111.36 30.32 111.36 29.08C111.36 27.84 111.55 26.71 111.93 25.69C112.33 24.67 112.87 23.8 113.55 23.08C114.25 22.36 115.07 21.8 116.01 21.4C116.97 21 118.01 20.8 119.13 20.8C120.27 20.8 121.31 21 122.25 21.4C123.21 21.8 124.03 22.36 124.71 23.08C125.39 23.8 125.92 24.67 126.3 25.69C126.68 26.71 126.87 27.84 126.87 29.08ZM122.31 29.08C122.31 27.7 122.03 26.62 121.47 25.84C120.93 25.04 120.15 24.64 119.13 24.64C118.11 24.64 117.32 25.04 116.76 25.84C116.2 26.62 115.92 27.7 115.92 29.08C115.92 30.46 116.2 31.56 116.76 32.38C117.32 33.18 118.11 33.58 119.13 33.58C120.15 33.58 120.93 33.18 121.47 32.38C122.03 31.56 122.31 30.46 122.31 29.08Z" fill="#3876BF"/>
<path d="M138.084 52.0063C139.289 52.5216 140.623 52.6616 141.909 52.4079C143.196 52.1542 144.376 51.5186 145.296 50.5841L158.292 37.6587L171.288 50.5841C171.894 51.1989 172.616 51.6874 173.412 52.0214C174.208 52.3553 175.062 52.5281 175.926 52.5296C176.813 52.5271 177.691 52.3492 178.509 52.0063C179.725 51.5142 180.764 50.6671 181.491 49.5755C182.218 48.4838 182.599 47.1984 182.584 45.887V11.0417C182.58 8.11431 181.416 5.30786 179.346 3.2379C177.276 1.16795 174.469 0.00350652 171.542 0L145.042 0C142.115 0.00350652 139.308 1.16795 137.238 3.2379C135.168 5.30786 134.004 8.11431 134 11.0417V45.887C133.986 47.1994 134.368 48.4856 135.097 49.5773C135.825 50.6691 136.866 51.5156 138.084 52.0063Z" fill="#3876BF"/>
<path d="M150.052 14.7747L143.657 18.4073C143.38 18.5668 143.067 18.6524 142.747 18.6558C142.428 18.6593 142.112 18.5805 141.832 18.427C141.556 18.2781 141.324 18.0609 141.157 17.7963C140.989 17.5317 140.893 17.2285 140.877 16.9158L140.876 9.45821C140.862 9.11111 140.943 8.76667 141.112 8.46303C141.281 8.1594 141.53 7.90842 141.833 7.7379C142.136 7.56738 142.48 7.48397 142.827 7.49691C143.174 7.50985 143.511 7.61864 143.8 7.81123L150.173 11.6089C150.438 11.7823 150.654 12.0216 150.8 12.3034C150.945 12.5853 151.015 12.9 151.003 13.217C150.991 13.5364 150.898 13.8474 150.731 14.1202C150.565 14.393 150.331 14.6184 150.052 14.7747Z" fill="white"/>
<g clip-path="url(#clip0_25_62)">
<path d="M155.25 7.00159C154.786 7.00159 154.341 7.18596 154.013 7.51415C153.684 7.84234 153.5 8.28746 153.5 8.75159V17.2516C153.5 17.7157 153.684 18.1608 154.013 18.489C154.341 18.8172 154.786 19.0016 155.25 19.0016C155.714 19.0016 156.159 18.8172 156.487 18.489C156.816 18.1608 157 17.7157 157 17.2516V8.75159C157 8.28746 156.816 7.84234 156.487 7.51415C156.159 7.18596 155.714 7.00159 155.25 7.00159Z" fill="white"/>
<path d="M160.75 7.00159C160.286 7.00159 159.841 7.18596 159.513 7.51415C159.184 7.84234 159 8.28746 159 8.75159V17.2516C159 17.7157 159.184 18.1608 159.513 18.489C159.841 18.8172 160.286 19.0016 160.75 19.0016C161.214 19.0016 161.659 18.8172 161.987 18.489C162.316 18.1608 162.5 17.7157 162.5 17.2516V8.75159C162.5 8.28746 162.316 7.84234 161.987 7.51415C161.659 7.18596 161.214 7.00159 160.75 7.00159Z" fill="white"/>
</g>
<defs>
<clipPath id="clip0_25_62">
<rect width="12" height="12" fill="white" transform="translate(152 7.00159)"/>
</clipPath>
</defs>
</svg>
